<svg width="77" height="40" viewBox="0 0 77 40" fill="none" xmlns="http://www.w3.org/2000/svg">
<path d="M10.9668 0.0371323C9.61957 0.249332 7.94879 0.859413 6.59095 1.63926C3.21228 3.5809 1.10127 6.49867 0.496607 10.053C0.199581 11.809 0.28975 13.9629 0.724681 15.6286C1.83323 19.8355 5.06339 22.6737 10.1447 23.9098L10.7281 24.053L14.3083 24.0796L17.8886 24.1114L18.35 24.2759C19.0926 24.5411 19.5806 24.8488 20.1163 25.3846C20.6626 25.9257 20.9543 26.4138 21.1612 27.1406C21.2619 27.496 21.2832 27.6817 21.2832 28.382C21.2832 29.0875 21.2672 29.2573 21.1665 29.5756C20.7528 30.8806 19.5381 31.8727 17.8143 32.313C17.4377 32.4085 17.1036 32.4138 8.88761 32.4138H0.358702V36.2069V40H8.33068C13.1733 40 16.5466 39.9788 16.9338 39.9469C19.4427 39.7347 22.0522 39.0981 24.0943 38.1963C26.0303 37.3422 27.7223 36.122 28.1572 35.2679L28.2633 35.0663L29.0165 35.8249C29.8757 36.6897 30.3902 37.1141 31.3343 37.7454C34.7873 40.0477 38.9775 40.6048 42.86 39.2785C44.011 38.8806 45.3105 38.2175 46.2546 37.5385C46.4827 37.374 46.6895 37.2414 46.7161 37.2414C46.7426 37.2414 46.976 37.3687 47.2305 37.5225C49.2673 38.7533 51.442 39.5544 53.6113 39.8727C54.1417 39.9523 54.8737 39.9682 59.0745 39.9841C62.2728 40 64.1982 39.9894 64.718 39.9523C68.8392 39.6499 72.3293 38.0902 74.3926 35.6233C75.6974 34.069 76.4399 32.2599 76.7476 29.9204C76.7794 29.6446 76.8112 28.8806 76.8112 28.2228C76.8006 23.1088 74.9283 19.4164 71.3799 17.5119C70.4994 17.0398 69.0673 16.5676 68.0118 16.3926C67.8102 16.3607 67.5822 16.3183 67.5079 16.3024C67.4337 16.2865 65.6939 16.2546 63.636 16.2334C60.3899 16.2016 59.8595 16.1857 59.6049 16.1114C58.1834 15.687 57.3719 14.6419 57.165 12.9761C56.8733 10.6737 57.9925 8.91246 60.252 8.13793L60.8513 7.93103L68.9294 7.91512L77.0022 7.90451V3.95225V-3.8147e-06H67.9694C57.9553 -3.8147e-06 58.5653 -0.0212212 57.3401 0.350128C55.5208 0.901855 53.6007 1.94164 52.2057 3.14058C50.0258 5.00795 48.7263 7.27851 48.2542 10.053C48.1428 10.6897 48.0315 12.2812 48.0792 12.4721C48.1216 12.6207 48.0315 12.5942 47.8511 12.4085C47.5965 12.1379 46.8168 11.496 46.2599 11.1034C43.0085 8.79045 38.935 8.06896 35.1267 9.13528C33.4506 9.60212 31.7056 10.504 30.2735 11.6499C29.6476 12.1538 28.5179 13.2891 27.9928 13.9523C26.7039 15.5756 25.7333 17.4536 25.1498 19.443L24.9801 20.0212L24.5823 19.2202C24.2057 18.4721 24.158 18.4085 23.845 18.1591C22.7895 17.3156 21.4741 16.7109 20.0102 16.3873C19.501 16.2759 19.3366 16.2653 15.82 16.2334C12.5474 16.2016 12.1284 16.191 11.842 16.1061C11.2903 15.9416 10.813 15.6605 10.4099 15.2573C9.75747 14.5995 9.44453 13.7825 9.39149 12.5889C9.35436 11.8249 9.42332 11.2997 9.64608 10.695C10.0439 9.60212 11.0092 8.68965 12.2716 8.22281C13.1733 7.88329 12.5474 7.90451 22.2061 7.90451H31.0161V3.95225V-3.8147e-06L21.0604 0.00530243C15.5813 0.0106087 11.041 0.0265236 10.9668 0.0371323ZM38.9456 16.2599C41.3537 16.679 43.3215 19.3475 43.7723 22.7958C43.8731 23.5703 43.8731 25.0239 43.7723 25.7984C43.5018 27.8674 42.6638 29.7294 41.4651 30.939C38.5531 33.8621 34.591 32.2281 33.1324 27.496C32.8354 26.5464 32.6975 25.5066 32.6975 24.2971C32.6975 23.2997 32.7452 22.8064 32.9255 21.9204C33.4241 19.5013 34.7766 17.4748 36.4527 16.6472C36.9036 16.4191 37.121 16.3501 37.6143 16.2599C38.1235 16.1645 38.3993 16.1645 38.9456 16.2599ZM53.1446 21.9682C54.5077 22.8541 56.6187 23.6764 58.2948 23.9788C58.8411 24.0796 59.1169 24.0849 62.1561 24.0849H65.4287L65.8955 24.2228C66.776 24.4775 67.5769 24.9814 68.1338 25.6393C69.0143 26.6737 69.3219 28.3979 68.8657 29.7188C68.4414 30.9284 67.2162 31.8939 65.5825 32.3024C65.1317 32.4191 65.1105 32.4191 59.3556 32.3979C53.0862 32.382 53.3938 32.3926 52.4709 32.0849C52.0466 31.9469 51.2775 31.5756 51.2775 31.5119C51.2775 31.4801 51.3836 31.2149 51.5109 30.9125C52.0572 29.618 52.4656 28.1167 52.6937 26.5199C52.8104 25.6764 52.821 22.9655 52.699 22.1591C52.6619 21.878 52.6301 21.6446 52.6407 21.6446C52.646 21.6446 52.8741 21.7878 53.1446 21.9682Z" fill="#EE1D25"/>
</svg>
